<?xml version="1.0" encoding="UTF-8" standalone="no"?>
<svg
   xmlns:dc="http://purl.org/dc/elements/1.1/"
   xmlns:cc="http://creativecommons.org/ns#"
   xmlns:rdf="http://www.w3.org/1999/02/22-rdf-syntax-ns#"
   xmlns:svg="http://www.w3.org/2000/svg"
   xmlns="http://www.w3.org/2000/svg"
   id="svg58"
   version="1.1"
   style="overflow:visible"
   viewBox="-240 -201 480 401"
   height="1604px"
   width="1920px">
  <metadata
     id="metadata64">
    <rdf:RDF>
      <cc:Work
         rdf:about="">
        <dc:format>image/svg+xml</dc:format>
        <dc:type
           rdf:resource="http://purl.org/dc/dcmitype/StillImage" />
      </cc:Work>
    </rdf:RDF>
  </metadata>
  <defs
     id="defs62" />
  <rect
     id="rect2"
     fill-opacity="0"
     fill="rgb(0,0,0)"
     height="401"
     width="480"
     y="-201"
     x="-240" />
  <svg
     id="svg36"
     version="1.1"
     y="-250"
     x="-250"
     viewBox="-250 -250 500 500"
     height="500"
     width="500"
     style="overflow:visible">
    <g
       style="fill:#ffffff;stroke-linejoin:round"
       id="g34">
      <path
         style="fill:#ffffff;fill-opacity:1;stroke:none;stroke-linecap:butt;stroke-linejoin:round"
         id="path4"
         d="M 187,0 A 187,187 0 0 1 0,187 187,187 0 0 1 -187,0 187,187 0 0 1 0,-187 187,187 0 0 1 187,0 Z" />
      <path
         style="fill:#000000;fill-opacity:1;stroke:none;stroke-linecap:butt;stroke-linejoin:round"
         id="path6"
         d="m -9.842001,-167.3852 h 19.6842 v 35.4316 h -19.6842 z" />
      <path
         style="fill:#000000;fill-opacity:1;stroke:none;stroke-linecap:butt;stroke-linejoin:round"
         id="path8"
         d="m 76.61,-144.503 10.2282,5.90527 -13.779,23.8658 -10.2282,-5.90525 z" />
      <path
         style="fill:#000000;fill-opacity:1;stroke:none;stroke-linecap:butt;stroke-linejoin:round"
         id="path10"
         d="m 138.598,-86.838 5.90526,10.2282 -23.8658,13.779 -5.90527,-10.2282 z" />
      <path
         style="fill:#000000;fill-opacity:1;stroke:none;stroke-linecap:butt;stroke-linejoin:round"
         id="path12"
         d="m 167.385,-9.842001 v 19.6842 h -35.4316 v -19.6842 z" />
      <path
         style="fill:#000000;fill-opacity:1;stroke:none;stroke-linecap:butt;stroke-linejoin:round"
         id="path14"
         d="m 144.503,76.61 -5.90526,10.2282 -23.8658,-13.779 5.90527,-10.2282 z" />
      <path
         style="fill:#000000;fill-opacity:1;stroke:none;stroke-linecap:butt;stroke-linejoin:round"
         id="path16"
         d="m 86.838,138.598 -10.2282,5.90525 -13.779,-23.8658 10.2282,-5.90526 z" />
      <path
         style="fill:#000000;fill-opacity:1;stroke:none;stroke-linecap:butt;stroke-linejoin:round"
         id="path18"
         d="m 9.841999,167.385 h -19.6842 v -35.4316 h 19.6842 z" />
      <path
         style="fill:#000000;fill-opacity:1;stroke:none;stroke-linecap:butt;stroke-linejoin:round"
         id="path20"
         d="m -76.610001,144.503 -10.2282,-5.90525 13.7789,-23.8658 10.2282,5.90526 z" />
      <path
         style="fill:#000000;fill-opacity:1;stroke:none;stroke-linecap:butt;stroke-linejoin:round"
         id="path22"
         d="m -138.598,86.838 -5.90527,-10.2282 23.8658,-13.779 5.90527,10.2282 z" />
      <path
         style="fill:#000000;fill-opacity:1;stroke:none;stroke-linecap:butt;stroke-linejoin:round"
         id="path24"
         d="m -167.3852,9.841999 v -19.6842 h 35.4316 v 19.6842 z" />
      <path
         style="fill:#000000;fill-opacity:1;stroke:none;stroke-linecap:butt;stroke-linejoin:round"
         id="path26"
         d="m -144.503,-76.610001 5.90527,-10.2282 23.8658,13.779 -5.90527,10.2282 z" />
      <path
         style="fill:#000000;fill-opacity:1;stroke:none;stroke-linecap:butt;stroke-linejoin:round"
         id="path28"
         d="m -86.838,-138.598 10.2282,-5.90527 13.779,23.8659 -10.2282,5.90525 z" />
      <path
         style="fill:#000000;fill-opacity:1;stroke:none;stroke-linecap:butt;stroke-linejoin:round"
         id="path30"
         d="M 6,0 A 6,6 0 0 1 0,6 6,6 0 0 1 -6,0 6,6 0 0 1 0,-6 6,6 0 0 1 6,0 Z" />
      <path
         style="fill:none;stroke:#000000;stroke-width:10;stroke-linecap:butt;stroke-linejoin:round;stroke-opacity:1"
         id="path32"
         d="M 187,0 A 187,187 0 0 1 0,187 187,187 0 0 1 -187,0 187,187 0 0 1 0,-187 187,187 0 0 1 187,0 Z" />
    </g>
  </svg>
  <svg
     id="svg46"
     version="1.1"
     y="-250"
     x="-250"
     viewBox="-250 -250 500 500"
     height="500"
     width="500"
     style="overflow:visible">
    <g
       style="fill:#ffffff;stroke-linejoin:round"
       id="g44"
       transform="rotate(-60)">
      <path
         style="fill:#000000;fill-opacity:1;stroke:none;stroke-linecap:butt;stroke-linejoin:round"
         id="path38"
         d="m -6.84,-103.65184 -4.560001,103.29236 3.04,31.987716 H 8.359998 l 3.04,-31.987717 -4.560001,-103.292359 z" />
      <path
         style="fill:#ffffff;fill-opacity:1;stroke:none;stroke-linecap:butt;stroke-linejoin:round"
         id="path40"
         d="M 6.74804,0 A 6.747857,6.747857 0 0 1 1.82e-4,6.747857 6.747857,6.747857 0 0 1 -6.747676,-1e-6 6.747857,6.747857 0 0 1 1.81e-4,-6.747859 6.747857,6.747857 0 0 1 6.748038,-2e-6 Z" />
      <path
         style="fill:none;stroke:#000000;stroke-width:0;stroke-linecap:butt;stroke-linejoin:round;stroke-opacity:0"
         id="path42"
         d="m -6.84,-103.65184 -4.560001,103.29236 3.04,31.987716 H 8.359998 l 3.04,-31.987717 -4.560001,-103.292359 z" />
    </g>
  </svg>
  <svg
     id="svg56"
     version="1.1"
     y="-250"
     x="-250"
     viewBox="-250 -250 500 500"
     height="500"
     width="500"
     style="overflow:visible">
    <g
       style="fill:#ffffff;stroke-linejoin:round"
       id="g54"
       transform="rotate(60)">
      <path
         style="fill:#000000;fill-opacity:1;stroke:none;stroke-linecap:butt;stroke-linejoin:round"
         id="path48"
         d="M -5.29264,-146.21222 -8.82113,-0.35986 -6.468801,31.627856 H 6.468982 L 8.821303,-0.359861 5.292813,-146.21222 Z" />
      <path
         style="fill:#ffffff;fill-opacity:1;stroke:none;stroke-linecap:butt;stroke-linejoin:round"
         id="path50"
         d="M 6.74804,0 A 6.747857,6.747857 0 0 1 1.82e-4,6.747857 6.747857,6.747857 0 0 1 -6.747676,-1e-6 6.747857,6.747857 0 0 1 1.81e-4,-6.747859 6.747857,6.747857 0 0 1 6.748038,-2e-6 Z" />
      <path
         style="fill:none;stroke:#000000;stroke-width:0;stroke-linecap:butt;stroke-linejoin:round;stroke-opacity:0"
         id="path52"
         d="M -5.29264,-146.21222 -8.82113,-0.35986 -6.468801,31.627856 H 6.468982 L 8.821303,-0.359861 5.292813,-146.21222 Z" />
    </g>
  </svg>
</svg>
